<svg width="500" height="500" viewBox="0 0 500 500" fill="none" xmlns="http://www.w3.org/2000/svg">
<rect width="500" height="500" fill="#0A0D2D"/>
<path d="M365.369 251.238C365.369 261.492 364.002 271.258 361.268 280.535C358.533 289.715 354.676 298.211 349.695 306.023C344.812 313.836 338.953 320.916 332.117 327.264C325.281 333.514 317.713 338.836 309.412 343.23C301.209 347.625 292.371 351.043 282.898 353.484C273.523 355.828 263.855 357 253.895 357H160.877V146.062H253.895C263.855 146.062 273.523 147.234 282.898 149.578C292.273 151.922 301.062 155.291 309.266 159.686C317.566 163.982 325.135 169.256 331.971 175.506C338.904 181.756 344.812 188.787 349.695 196.6C354.676 204.314 358.533 212.811 361.268 222.088C364.002 231.268 365.369 240.984 365.369 251.238ZM306.336 251.238C306.336 239.812 304.92 228.973 302.088 218.719C299.354 208.367 295.057 199.285 289.197 191.473C283.338 183.66 275.867 177.459 266.785 172.869C257.801 168.279 247.01 165.984 234.412 165.984H219.031V336.492H234.412C246.814 336.492 257.508 334.197 266.492 329.607C275.574 324.92 283.045 318.67 288.904 310.857C294.861 302.947 299.256 293.865 302.088 283.611C304.92 273.357 306.336 262.566 306.336 251.238Z" fill="#FF481F"/>
<path d="M242 233.838C249.293 244.661 265.511 268.78 268.964 271.613C271.37 273.587 275.324 265.79 299.528 237.208C320.494 214.71 361.223 171.571 382.845 148.425C404.467 125.279 405.747 123.434 407.347 121" stroke="white" stroke-width="13" stroke-linecap="round"/>
</svg>
