<svg width="500" height="500" viewBox="0 0 500 500" fill="none" xmlns="http://www.w3.org/2000/svg">
<rect width="500" height="500" rx="130" fill="#0A0D2D"/>
<path d="M382.607 247.233C382.607 259.384 380.987 270.956 377.746 281.949C374.506 292.827 369.935 302.894 364.034 312.152C358.248 321.409 351.305 329.799 343.204 337.32C335.104 344.726 326.136 351.033 316.3 356.24C306.579 361.448 296.107 365.498 284.882 368.391C273.773 371.168 262.317 372.557 250.514 372.557H140.292V122.604H250.514C262.317 122.604 273.773 123.993 284.882 126.77C295.991 129.547 306.406 133.54 316.126 138.747C325.962 143.839 334.931 150.087 343.031 157.493C351.247 164.899 358.248 173.231 364.034 182.489C369.935 191.63 374.506 201.698 377.746 212.691C380.987 223.569 382.607 235.083 382.607 247.233ZM312.655 247.233C312.655 233.694 310.977 220.849 307.621 208.699C304.381 196.433 299.289 185.671 292.346 176.413C285.403 167.156 276.55 159.808 265.789 154.369C255.142 148.93 242.355 146.211 227.428 146.211H209.202V348.256H227.428C242.124 348.256 254.795 345.536 265.441 340.098C276.203 334.543 285.056 327.137 291.999 317.88C299.058 308.506 304.265 297.745 307.621 285.594C310.977 273.444 312.655 260.657 312.655 247.233Z" fill="#FF481F"/>
<path d="M236.419 226.779C245.061 239.604 264.279 268.184 268.37 271.541C271.221 273.88 275.907 264.642 304.588 230.772C329.431 204.114 377.693 152.995 403.315 125.568C428.936 98.1414 430.453 95.9555 432.348 93.071" stroke="white" stroke-width="20" stroke-linecap="round"/>
</svg>
